<svg width="76" height="76" viewBox="0 0 76 76" fill="none" xmlns="http://www.w3.org/2000/svg">
<g clip-path="url(#clip0_326_21)">
<path d="M49.752 22.6147C50.1615 22.4278 50.6147 22.3204 51.0929 22.3204C51.571 22.3204 52.0242 22.4278 52.4338 22.6147V12.4373H49.752V22.6147Z" fill="black"/>
<path d="M17.0206 11.1913H51.7268L49.4919 8.50951H48.0156C47.9299 8.3709 47.7913 8.26656 47.62 8.22762L10.5373 0.0731967V0H7.85547V7.26361H10.5373V1.34869L43.0989 8.50951H17.0206V11.1913Z" fill="black"/>
<path d="M49.0963 25.5629C49.0963 26.6639 49.9918 27.5579 51.0913 27.5579C52.1908 27.5579 53.0863 26.6624 53.0863 25.5629C53.0863 24.4634 52.1908 23.5679 51.0913 23.5679C49.9918 23.5679 49.0963 24.4634 49.0963 25.5629Z" fill="black"/>
<path d="M18.3926 73.3181H0V75.9999H18.3926V73.3181Z" fill="black"/>
<path d="M54.2731 26.1858C53.9819 27.6762 52.6674 28.8037 51.0929 28.8037C49.5184 28.8037 48.204 27.6762 47.9128 26.1858H41.8966V36.723H60.2892V26.1858H54.2731Z" fill="black"/>
<path d="M11.1929 22.9121H7.20129V72.0723H11.1929V22.9121Z" fill="black"/>
<path d="M15.7731 8.50952H2.61792V21.6662H15.7731V8.50952Z" fill="black"/>
<path d="M60.2893 64.1531H45.8243V69.4528H60.2893V64.1531Z" fill="black"/>
<path d="M60.2893 70.7002H45.8243V75.9999H60.2893V70.7002Z" fill="black"/>
<path d="M44.5769 70.7002H30.1119V75.9999H44.5769V70.7002Z" fill="black"/>
<path d="M44.5769 64.1531H30.1119V69.4528H44.5769V64.1531Z" fill="black"/>
<path d="M76.0001 57.6074H61.5352V62.9072H76.0001V57.6074Z" fill="black"/>
<path d="M76.0001 70.7002H61.5352V75.9999H76.0001V70.7002Z" fill="black"/>
<path d="M76.0001 64.1531H61.5352V69.4528H76.0001V64.1531Z" fill="black"/>
</g>
<defs>
<clipPath id="clip0_326_21">
<rect width="76" height="76" fill="white"/>
</clipPath>
</defs>
</svg>
