<svg width="61" height="61" viewBox="0 0 61 61" fill="none" xmlns="http://www.w3.org/2000/svg">
<g clip-path="url(#clip0_326_39)">
<path fill-rule="evenodd" clip-rule="evenodd" d="M23.0472 0H50.0248V10.1525C50.0248 10.6095 50.397 10.9817 50.854 10.9817H61.0065V51.6375C61.0065 54.791 58.4276 57.3764 55.2676 57.3764H34.5251C34.5512 57.174 34.5577 56.9651 34.5577 56.7496V51.7746H46.8844C47.3414 51.7746 47.7136 51.4024 47.7136 50.9454C47.7136 50.4884 47.3414 50.1162 46.8844 50.1162H34.5577V44.5927H46.8844C47.3414 44.5927 47.7136 44.2206 47.7136 43.7636C47.7136 43.3065 47.3414 42.9344 46.8844 42.9344H34.5577V37.4109H46.8844C47.3414 37.4109 47.7136 37.0387 47.7136 36.5817C47.7136 36.1247 47.3414 35.7525 46.8844 35.7525H34.5577V32.351C34.5577 29.093 31.9005 26.4357 28.6425 26.4357H17.3083V5.73895C17.3083 2.58546 19.8937 0 23.0472 0ZM4.26341 28.0941C1.91951 28.0941 0 30.0136 0 32.3575V56.7431C0 59.087 1.91951 61.0065 4.26341 61.0065H28.649C30.9929 61.0065 32.9124 59.087 32.9124 56.7431V32.3575C32.9124 30.0136 30.9929 28.0941 28.649 28.0941H22.3029V39.1607C22.3029 39.8984 21.3823 40.3032 20.8339 39.683L16.4595 34.9756L12.0459 39.7221C11.5367 40.2706 10.6161 39.905 10.6161 39.1607V28.0941H4.26993H4.26341ZM6.13721 50.3774H13.6259C14.4943 50.3774 15.1994 51.0891 15.1994 51.9509V53.6745C15.1994 54.5429 14.4877 55.248 13.6259 55.248H6.13721C5.26886 55.248 4.56374 54.5429 4.56374 53.6745V51.9509C4.56374 51.0825 5.27539 50.3709 6.13721 50.3709V50.3774ZM12.2614 28.0941V37.0649C13.4562 35.7852 14.6706 34.499 15.8523 33.2062C16.1722 32.8537 16.7337 32.8537 17.0602 33.2062L20.6511 37.0649V28.0941H12.2679H12.2614ZM49.2087 37.2673L51.2719 39.3304C51.5918 39.6503 52.1206 39.6503 52.4405 39.3304L56.7627 35.0082C57.0826 34.6883 57.0826 34.1595 56.7627 33.8396C56.4428 33.5196 55.9139 33.5196 55.594 33.8396L51.8529 37.5807L50.3774 36.1051C50.0575 35.7852 49.5286 35.7852 49.2087 36.1051C48.8888 36.425 48.8888 36.9473 49.2087 37.2738V37.2673ZM49.2087 51.6244L51.2719 53.6876C51.5918 54.0075 52.1206 54.0075 52.4405 53.6876L56.7627 49.3654C57.0826 49.0455 57.0826 48.5166 56.7627 48.1967C56.4428 47.8768 55.9139 47.8768 55.594 48.1967L51.8529 51.9378L50.3774 50.4623C50.0575 50.1424 49.5286 50.1424 49.2087 50.4623C48.8888 50.7822 48.8888 51.3045 49.2087 51.631V51.6244ZM49.2087 44.4491L51.2719 46.5123C51.5918 46.8322 52.1206 46.8322 52.4405 46.5123L56.7627 42.1901C57.0826 41.8702 57.0826 41.3413 56.7627 41.0214C56.4428 40.7015 55.9139 40.7015 55.594 41.0214L51.8529 44.7625L50.3774 43.287C50.0575 42.967 49.5286 42.967 49.2087 43.287C48.8888 43.6069 48.8888 44.1292 49.2087 44.4556V44.4491ZM51.6767 0.829177V9.32987H60.1773L51.6767 0.829177ZM39.1541 3.68233C34.1399 3.68233 30.0789 7.74334 30.0789 12.7576C30.0789 14.2135 30.4249 15.5911 31.0321 16.8055L38.0116 29.1518C38.5143 30.0462 39.794 30.0462 40.3032 29.1518L47.2827 16.8055C47.8899 15.5846 48.2359 14.207 48.2359 12.7576C48.2359 7.74334 44.1684 3.68233 39.1541 3.68233ZM39.1541 7.58011C36.203 7.58011 33.8134 9.96971 33.8134 12.9208C33.8134 15.8719 36.203 18.2615 39.1541 18.2615C42.1052 18.2615 44.4948 15.8719 44.4948 12.9208C44.4948 9.96971 42.1052 7.58011 39.1541 7.58011Z" fill="black"/>
</g>
<defs>
<clipPath id="clip0_326_39">
<rect width="61" height="61" fill="white"/>
</clipPath>
</defs>
</svg>
