<svg width="67" height="67" viewBox="0 0 67 67" fill="none" xmlns="http://www.w3.org/2000/svg">
<g clip-path="url(#clip0_313_49)">
<path d="M34.5625 44.7119V48.5159H16.3236C15.2813 48.5159 14.4286 47.6615 14.4286 46.6173C14.4151 45.6137 15.3017 44.6983 16.3236 44.7187H34.5625V44.7119Z" fill="black"/>
<path d="M29.9674 42.8744H21.6973L22.3064 37.8838H29.3718L29.9674 42.8744Z" fill="black"/>
<path d="M51.6983 4.33286V10.9508H49.8642V4.25149C49.8642 2.92926 48.7882 1.83757 47.455 1.83757H4.24333C2.91687 1.83757 1.83404 2.92248 1.83404 4.25149V28.5874C1.83404 29.9096 2.91687 31.0013 4.24333 31.0013H34.5625V36.0394H4.32455C1.94232 36.0394 0 34.1001 0 31.7065V4.33286C0 1.93928 1.94909 0 4.32455 0H47.367C49.756 0 51.6915 1.94606 51.6915 4.33286H51.6983Z" fill="black"/>
<path d="M63.1425 12.7952H40.2745C38.1427 12.7952 36.4102 14.5378 36.4102 16.6669V63.1214C36.4102 65.2574 38.1427 66.9932 40.2745 66.9932H63.1425C65.2743 66.9932 67.0001 65.2506 67.0001 63.1214V16.6737C67.0001 14.5378 65.2743 12.7952 63.1425 12.7952ZM65.6871 59.6836C65.6871 61.094 64.5366 62.2332 63.1425 62.2332H40.2745C38.8804 62.2332 37.7299 61.0872 37.7299 59.6769V16.6737C37.7299 15.2633 38.8804 14.1242 40.2745 14.1242H44.7412C45.7022 14.0699 45.9661 15.3108 46.2842 15.9753L57.0719 16.0092C57.4238 15.3718 57.7351 14.0564 58.6826 14.1242H63.1492C64.5434 14.1242 65.6939 15.2633 65.6939 16.6737V59.6836H65.6871Z" fill="black"/>
<path d="M48.0234 4.25146V10.9508H40.2676C37.1274 10.9508 34.5625 13.5207 34.5625 16.6669V29.1569H4.24329C3.93198 29.1569 3.6748 28.8993 3.6748 28.5874V4.25146C3.6748 3.93955 3.93198 3.68188 4.24329 3.68188H47.4549C47.7662 3.68188 48.0234 3.93955 48.0234 4.25146Z" fill="black"/>
<path d="M63.8463 16.6736V59.6836C63.8463 60.0768 63.5215 60.3955 63.1357 60.3955H40.2677C39.882 60.3955 39.5571 60.0836 39.5571 59.6836V16.6736C39.5571 16.2804 39.882 15.9617 40.2677 15.9617H44.2674C44.6329 16.9449 45.1743 17.8603 46.3451 17.8467H57.0651C58.2088 17.867 58.7976 16.9381 59.1293 15.9617H63.1357C63.5215 15.9617 63.8396 16.2736 63.8396 16.6736H63.8463Z" fill="black"/>
</g>
<defs>
<clipPath id="clip0_313_49">
<rect width="67" height="67" fill="white"/>
</clipPath>
</defs>
</svg>
