<svg width="49" height="61" viewBox="0 0 49 61" fill="none" xmlns="http://www.w3.org/2000/svg">
<path d="M9.5951 9.79776V3.82429C9.5951 2.79926 10.0049 1.82372 10.7327 1.10973C11.4604 0.39574 12.4425 -0.0142726 13.46 -0.000134264H35.6107C37.7233 -0.000134264 39.4402 1.71061 39.4402 3.82429V9.75534L9.5951 9.79776ZM21.6844 19.1291H47.8978L47.8483 19.0655L42.0545 13.4313L15.94 13.4667L21.6844 19.1291ZM19.0913 21.7447L10.6973 13.4737H6.88897L1.15169 19.0584C0.416871 19.7794 0 20.7691 0 21.8083V57.1542C0 59.2608 1.70988 60.9716 3.82249 60.9787H19.0913V21.7447ZM22.7725 22.8121V60.9999H45.1846C47.2901 60.9999 49 59.2891 49.0071 57.1754V22.8121H22.7725Z" fill="black"/>
</svg>
