<svg width="45" height="61" viewBox="0 0 45 61" fill="none" xmlns="http://www.w3.org/2000/svg">
<path fill-rule="evenodd" clip-rule="evenodd" d="M38.775 2.25329C29.8249 -0.751095 15.1817 -0.751095 6.22499 2.25329C-2.06189 5.03608 -2.06189 8.83555 6.22499 11.6249C15.1817 14.6358 29.8249 14.6358 38.775 11.6249C47.0619 8.84207 47.0619 5.0426 38.775 2.25329ZM13.0344 6.67839C13.7173 6.97166 13.7173 6.91301 13.0344 7.19976C10.7821 8.15126 7.94541 7.11504 7.94541 6.93908C7.94541 6.76311 10.7821 5.7269 13.0344 6.67839ZM10.7493 4.41044C17.0071 4.41044 17.0071 9.46119 10.7493 9.46119C4.49145 9.46119 4.49145 4.41044 10.7493 4.41044ZM27.763 31.2609C31.1119 35.9727 33.3576 40.059 31.0331 44.7447C34.9992 44.2169 38.4204 43.324 40.9156 42.1966C43.6145 40.9779 45.5975 39.3486 44.8293 37.5694C44.3368 36.4224 44.0216 36.8786 44.0216 36.0835V26.914C40.1802 29.5208 33.4758 30.8242 27.763 31.2544V31.2609ZM18.5503 29.4752C13.1789 29.1624 8.45102 28.2304 5.06273 26.9075C1.80576 25.6366 -0.682932 23.8379 0.164142 21.8697C0.420234 21.2702 0.958685 20.7749 0.971817 20.7423V11.2143C9.87595 17.2687 35.1109 17.2687 44.0216 11.2143V20.7488C44.0872 20.9248 47.9024 23.8053 39.9307 26.914C36.5424 28.2369 31.8145 29.1689 26.4431 29.4817C25.7077 28.5041 24.9854 27.5983 24.3484 26.7967C23.5605 25.8061 22.871 24.4896 21.9188 25.213L18.5371 29.4752H18.5503ZM13.9669 44.7513C11.6423 40.0655 13.8881 35.9792 17.237 31.2674C11.5241 30.8307 4.81977 29.5338 0.978384 26.927V36.4485C0.965251 36.4876 0.433367 36.9698 0.170708 37.5825C-0.591002 39.3616 1.3855 40.9909 4.08432 42.2096C6.57958 43.3305 9.99414 44.2234 13.9669 44.7513ZM29.2208 47.2603C29.3718 47.1104 29.5163 46.954 29.6541 46.7976C29.7067 46.7716 39.0114 46.0221 44.0216 42.6332V51.907L44.258 52.5261C46.5825 55.146 42.9381 57.3358 38.775 58.7369C29.8183 61.7478 15.1751 61.7478 6.22499 58.7369C-3.27669 55.5436 0.971817 52.2915 0.978384 52.2524V42.6267C5.98203 46.0156 15.2933 46.765 15.3458 46.7911C15.4837 46.954 15.6347 47.1039 15.7792 47.2538C19.4893 50.936 25.5107 50.936 29.2208 47.2538V47.2603ZM22.4967 48.1467C18.2876 48.1467 14.8796 44.7643 14.8796 40.5868C14.8796 36.9503 19.6862 31.0263 22.4967 27.481C25.3071 31.0328 30.1138 36.9503 30.1138 40.5868C30.1138 44.7643 26.7058 48.1467 22.4967 48.1467ZM22.4967 44.8816C24.8869 44.8816 26.824 42.9591 26.824 40.5868H28.7151C28.7151 43.9953 25.931 46.752 22.5033 46.752V44.8751L22.4967 44.8816Z" fill="black"/>
</svg>
