<svg width="65" height="56" viewBox="0 0 65 56" fill="none" xmlns="http://www.w3.org/2000/svg">
<g clip-path="url(#clip0_313_18)">
<path d="M61.8744 10.5772C61.8359 9.94813 61.3124 9.45112 60.6811 9.45112H51.1193V7.35432C51.1193 3.30051 47.8474 0 43.8286 0H40.0024C35.9837 0 32.7117 3.30051 32.7117 7.35432V9.45112H23.1731C22.5495 9.45112 22.0183 9.9326 21.9721 10.5772L21.0097 24.1209H30.2251C30.8871 24.1209 31.4261 24.6645 31.4261 25.3324V44.8792C31.4261 45.5471 30.8871 46.0907 30.2251 46.0907H19.4623L18.8464 54.6953C18.8233 55.037 18.9388 55.3632 19.1698 55.6195C19.4007 55.8602 19.7087 55.9922 20.0474 55.9922H63.7836C64.1224 55.9922 64.4457 55.8602 64.6767 55.6195C64.9076 55.3632 65.0154 55.037 64.9923 54.6953L61.8744 10.5772ZM35.1137 7.35432C35.1137 4.63625 37.3002 2.43073 39.9947 2.43073H43.8209C46.5155 2.43073 48.7019 4.63625 48.7019 7.35432V9.45112H35.106V7.35432H35.1137Z" fill="black"/>
<path d="M14.7968 37.4317C16.0979 37.4317 17.1526 36.36 17.1526 35.0553C17.1526 33.7506 16.0902 32.679 14.7968 32.679C13.5034 32.679 12.4487 33.7506 12.4487 35.0553C12.4487 36.36 13.4958 37.4317 14.7968 37.4317Z" fill="black"/>
<path d="M5.07343 26.3807C5.07343 26.2331 5.05804 26.0856 5.05034 25.9458H1.20099C0.538908 25.9458 0 26.4894 0 27.1573V30.8306C0.207865 30.8694 0.40803 30.8772 0.615895 30.8772C3.07178 30.8772 5.08113 28.8658 5.08113 26.3729L5.07343 26.3807Z" fill="black"/>
<path d="M0.17707 38.915C0.11548 38.915 0.0538908 38.915 0 38.9305V42.9688C0 43.6367 0.538908 44.1803 1.20099 44.1803H5.06573C5.08113 44.0716 5.08113 43.9706 5.08113 43.8619C5.08113 41.1283 2.87931 38.9072 0.184768 38.9072L0.17707 38.915Z" fill="black"/>
<path d="M25.0208 43.4193C25.0208 43.6833 25.0438 43.9396 25.0823 44.1803H28.3928C29.0703 44.1803 29.5938 43.6367 29.5938 42.9688V38.9306C29.5938 38.9306 29.5245 38.915 29.486 38.915C27.0301 38.915 25.0208 40.9419 25.0208 43.4193Z" fill="black"/>
<path d="M22.6495 44.1802C22.6264 43.9239 22.611 43.6677 22.611 43.4192C22.611 39.5983 25.6905 36.492 29.4783 36.492H29.586V33.3623C29.5014 33.3778 29.409 33.3778 29.3243 33.3778C25.2979 33.3778 22.0259 30.0773 22.0259 26.0157V25.9536H7.46772C7.48312 26.1012 7.48312 26.2487 7.48312 26.3885C7.48312 30.2093 4.40365 33.3157 0.615895 33.3157C0.40803 33.3157 0.207865 33.3002 0 33.2924V36.5075C0.0615895 36.492 0.123179 36.492 0.17707 36.492C4.20348 36.492 7.47542 39.808 7.47542 43.8696C7.47542 43.9783 7.47542 44.087 7.45233 44.188H22.6418L22.6495 44.1802ZM14.7969 30.2482C17.4298 30.2482 19.5624 32.4071 19.5624 35.0553C19.5624 37.7034 17.4298 39.8624 14.7969 39.8624C12.1639 39.8624 10.0468 37.7112 10.0468 35.0553C10.0468 32.3993 12.1793 30.2482 14.7969 30.2482Z" fill="black"/>
<path d="M29.5937 30.9315V27.1573C29.5937 26.4894 29.0625 25.9458 28.3927 25.9458H24.4355V26.0079C24.4355 28.7415 26.6374 30.947 29.3319 30.947C29.4166 30.947 29.509 30.9471 29.5937 30.9315Z" fill="black"/>
</g>
<defs>
<clipPath id="clip0_313_18">
<rect width="65" height="56" fill="white"/>
</clipPath>
</defs>
</svg>
